<?xml version="1.0" encoding="UTF-8" standalone="no"?>
<!-- Created with Inkscape (http://www.inkscape.org/) -->

<svg
   width="59.583351"
   height="59.514183"
   viewBox="0 0 15.764563 15.746263"
   version="1.1"
   id="svg5"
   inkscape:version="1.1.2 (0a00cf5339, 2022-02-04)"
   sodipodi:docname="regoloai.svg"
   xmlns:inkscape="http://www.inkscape.org/namespaces/inkscape"
   xmlns:sodipodi="http://sodipodi.sourceforge.net/DTD/sodipodi-0.dtd"
   xmlns="http://www.w3.org/2000/svg"
   xmlns:svg="http://www.w3.org/2000/svg">
  <sodipodi:namedview
     id="namedview7"
     pagecolor="#ffffff"
     bordercolor="#666666"
     borderopacity="1.0"
     inkscape:pageshadow="2"
     inkscape:pageopacity="0.0"
     inkscape:pagecheckerboard="0"
     inkscape:document-units="px"
     showgrid="false"
     inkscape:object-nodes="true"
     inkscape:zoom="5.865376"
     inkscape:cx="45.521379"
     inkscape:cy="25.488562"
     inkscape:window-width="1920"
     inkscape:window-height="1008"
     inkscape:window-x="0"
     inkscape:window-y="40"
     inkscape:window-maximized="1"
     inkscape:current-layer="layer1"
     fit-margin-top="0"
     fit-margin-left="0"
     fit-margin-right="0"
     fit-margin-bottom="0"
     units="px"
     width="60px" />
  <defs
     id="defs2">
    <style
       id="style1">
      .cls-1 {
        fill: #303030;
      }

      .cls-2 {
        fill: #59e389;
      }
    </style>
  </defs>
  <g
     inkscape:label="Layer 1"
     inkscape:groupmode="layer"
     id="layer1"
     transform="translate(-93.380953,-85.935978)">
    <g
       id="g13"
       transform="matrix(0.15100157,0,0,0.15085517,93.213145,85.818271)">
      <path
         class="cls-1"
         d="m 105.5013,65.870268 v 36.180002 c 0,0.32 -0.05,0.62 -0.14,0.91 -0.39,1.27 -1.58,2.2 -2.99,2.2 H 66.191303 c -1.73,0 -3.13,-1.41 -3.13,-3.13 V 73.310268 c 0,-0.15 0,-0.29 0,-0.44 v -7 c 0,-1.73 1.4,-3.13 3.13,-3.13 H 102.3813 c 1.5,0 2.77,1.07 3.06,2.5 0.05,0.21 0.07,0.41 0.07,0.63 z"
         id="path1" />
      <path
         class="cls-1"
         d="m 105.5013,65.870268 v 36.180002 c 0,0.32 -0.05,0.62 -0.14,0.91 -0.39,1.27 -1.58,2.2 -2.99,2.2 H 66.191303 c -1.73,0 -3.13,-1.41 -3.13,-3.13 V 73.310268 c 0,-0.15 0,-0.29 0,-0.44 v -7 c 0,-1.73 1.4,-3.13 3.13,-3.13 H 102.3813 c 1.5,0 2.77,1.07 3.06,2.5 0.05,0.21 0.07,0.41 0.07,0.63 z"
         id="path2"
         style="fill:#ffffff" />
      <path
         class="cls-2"
         d="M 102.3813,0.79026742 H 66.201303 c -1.73,0 -3.13,1.39999998 -3.13,3.13000028 V 32.630268 c 0,4.71 -1.88,9.23 -5.2,12.56 l -12.34,12.33 c -3.32,3.33 -7.85,5.2 -12.55,5.2 h -12.89 c -2.21,0 -3.99,-1.79 -3.99,-3.99 v -11.53 c 0,-2.21 1.79,-3.99 3.99,-3.99 h 20.34 c 1.41,0 2.59,-0.93 2.99,-2.2 0.09,-0.29 0.14,-0.59 0.14,-0.91 V 3.9102677 c 0,-0.22 -0.02,-0.42 -0.07,-0.63 -0.29,-1.4300003 -1.56,-2.50000028 -3.06,-2.50000028 H 4.2413034 c -1.730001,0 -3.130001,1.39999998 -3.130001,3.13000028 v 7.0000003 c 0,0.15 0,0.29 0,0.44 v 28.72 c 0,1.72 1.41,3.13 3.130001,3.13 h 3.16 c 2.21,0 3.9899996,1.79 3.9899996,3.99 v 11.53 c 0,2.21 -1.7899996,3.99 -3.9899996,3.99 h -3.14 c -1.730001,0 -3.13,1.4 -3.13,3.13 v 36.190002 c 0,1.72 1.409999,3.13 3.13,3.13 H 40.451303 c 1.73,0 3.13,-1.41 3.13,-3.13 V 73.310268 c 0,-4.7 1.87,-9.23 5.2,-12.55 l 12.33,-12.34 c 3.33,-3.32 7.85,-5.2 12.56,-5.2 H 102.3813 c 1.73,0 3.13,-1.4 3.13,-3.13 V 3.9102677 c 0,-1.7300003 -1.4,-3.13000028 -3.13,-3.13000028 z"
         id="path3" />
    </g>
  </g>
</svg>
